<svg xmlns="http://www.w3.org/2000/svg" viewBox="0 0 754 181"><path fill="#231815" d="M372.3 66.4c-15.2 0-27.2 11.5-27.2 27.3s12.1 27.3 27.2 27.3c15.2 0 27.2-11.5 27.2-27.3S387 66.4 372.3 66.4zm0 43.8c-8.2 0-15.2-6.9-15.2-16.5 0-10 7-16.5 15.2-16.5s15.2 6.5 15.2 16.5c-.1 9.6-7.1 16.5-15.2 16.5zm-59.5-43.8c-15.2 0-27.2 11.5-27.2 27.3s12.1 27.3 27.2 27.3c15.2 0 27.2-11.5 27.2-27.3s-12.1-27.3-27.2-27.3zm0 43.8c-8.2 0-15.2-6.9-15.2-16.5 0-10 7-16.5 15.2-16.5S328 83.7 328 93.7c-.1 9.6-7.1 16.5-15.2 16.5zM242 74.9v11.5h27.6c-.8 6.5-3.1 11.1-6.2 14.6-3.9 3.8-10.1 8.5-21.4 8.5-17.1 0-30.3-13.8-30.3-30.7S224.9 48 242 48c9.3 0 15.9 3.5 20.6 8.1l8.2-8.1c-7-6.5-15.9-11.5-28.8-11.5-23.3 0-42.8 18.8-42.8 42.3S218.7 121 242 121c12.4 0 22.2-4.2 29.6-11.9 7.8-7.7 10.1-18.4 10.1-26.9 0-2.7-.4-5-.8-7.3zm288.9 8.8c-2.3-6.1-9.3-17.3-23.3-17.3s-25.7 11.1-25.7 27.3c0 15.4 11.7 27.3 26.8 27.3 9 .1 17.5-4.4 22.6-11.9l-9.3-6.2c-3.1 4.6-7.4 7.7-13.2 7.7-6.2 0-10.5-2.7-13.2-8.1l36.2-15zm-37 9.2c-.4-10.4 8.2-15.8 14-15.8 4.7 0 8.9 2.3 10.1 5.8zm-29.5 26.5h12.1V39.1h-12.1zM445 72.6h-.4c-2.7-3.1-7.8-6.2-14.4-6.2-13.6 0-26 11.9-26 27.3s12.4 27.3 26 27.3c6.6 0 11.7-3.1 14.4-6.1h.4v3.8c0 10.4-5.4 16.1-14.4 16.1-7.4 0-11.7-5.4-13.6-9.6l-10.5 4.2c3.1 7.3 10.9 16.1 24.1 16.1 14 0 25.7-8.1 25.7-28.4V68.3H445zm-13.6 37.6c-8.2 0-15.2-6.9-15.2-16.5s7-16.5 15.2-16.5 14.4 6.9 14.4 16.5c-.1 9.6-6.3 16.5-14.4 16.5zm155.5-71.1h-28.4v80.3h12.1V89.1h16.7c13.2 0 26-9.6 26-25-.4-15.4-13.2-25-26.4-25zm.4 38.8h-17.1V50.3h17.1c8.9 0 14 7.3 14 13.8 0 6.1-5.1 13.8-14 13.8zm73.4-11.5c-8.6 0-17.5 3.8-21.4 12.3l10.5 4.6c2.3-4.6 6.6-5.8 10.9-5.8 6.2 0 12.4 3.8 12.4 10.4v.8c-2.3-1.2-6.6-3.1-12.4-3.1-11.3 0-22.9 6.1-22.9 18.1 0 10.8 9.3 17.7 19.8 17.7 8.2 0 12.4-3.5 15.2-7.7h.4v6.2h11.7V89.1c0-14.6-10.5-22.7-24.2-22.7zm-1.5 43.8c-3.9 0-9.3-1.9-9.3-6.9 0-6.1 6.6-8.5 12.4-8.5 5.1 0 7.8 1.2 10.9 2.7-.8 7.3-7 12.7-14 12.7zm67.6-42.3l-13.6 34.6h-.4l-14-34.6H686l21.4 48.4-12.1 26.9h12.4l32.7-75.3zm-107.3 51.5h12.1V39.1h-12.1z"/><path fill="#01d4fe" d="M9.7 170.5c-1.9-2.3-2.7-5-3.1-7.8V20c0-3.1.8-6.2 3.1-8.5.4 0 .8.4 1.2.8l59.3 59.3 18.2 18.2 1.2 1.2c0 .8-.8 1.2-1.2 1.6l-36.8 36.8c-8.1 8.1-16.7 16.3-24.8 24.8-5 5.4-10.5 10.5-15.5 15.9-.8 0-1.2.4-1.6.4z"/><path fill="#fe3a44" d="M9.7 170.5l21.7-21.7 57-57 .8-.8h.4c.4 0 .8.4 1.2.8l24.8 24.8c.4.4 1.2.8.8 1.6-6.6 3.9-12.8 7.4-19.4 11.2-18.2 10.5-36.5 20.9-54.7 31-6.2 3.5-12.8 7.4-19 10.9-2.3 1.6-5 2.3-7.8 1.9s-4.2-1.1-5.8-2.7z"/><path fill="#03ee76" d="M89.2 91c-17-17.1-34.1-33.7-50.8-50.8L10.5 12.3c-.4-.4-.8-.4-.8-.8 2.3-2.7 5.4-3.1 8.9-2.3 2.7.8 5.4 2.3 7.8 3.5L59 31.3c10.5 5.8 20.9 12 31.4 17.8 8.5 5 17.1 9.7 25.6 14.7.4.4-.4.8-.4 1.2L90.4 90.2c-.4.4-.8.8-1.2.8z"/><path fill="#fed504" d="M89.2 91c.4-.4.8-.8.8-1.2l25.2-25.2c.4-.4.8-.4.8-.8 10.5 6.2 21.3 12 31.8 18.2 2.7 1.6 5 3.9 5.8 7 .8 2.7-.4 5.4-1.9 7.4-1.2 1.6-2.7 2.7-4.3 3.5-10.5 5.8-20.6 11.6-31 17.5 0 0-.4 0-.4.4 0-.4-.4-.8-.8-1.2-8.1-8.5-16.7-16.7-25.2-25.2-.4 0-.4-.4-.8-.4z"/></svg>