<?xml version="1.0" encoding="utf-8"?>
<!-- Generator: Adobe Illustrator 23.0.3, SVG Export Plug-In . SVG Version: 6.00 Build 0)  -->
<svg version="1.1" id="图层_1" xmlns="http://www.w3.org/2000/svg" xmlns:xlink="http://www.w3.org/1999/xlink" x="0px" y="0px"
	 viewBox="0 0 754 181" style="enable-background:new 0 0 754 181;" xml:space="preserve">
<style type="text/css">
	.st0{fill:#231815;}
	.st1{fill:#01D4FE;}
	.st2{fill:#FE3A44;}
	.st3{fill:#03EE76;}
	.st4{fill:#FED504;}
</style>
<path fill="#231815" class="st0" d="M372.3,66.4c-15.2,0-27.2,11.5-27.2,27.3s12.1,27.3,27.2,27.3c15.2,0,27.2-11.5,27.2-27.3S387,66.4,372.3,66.4z
	 M372.3,110.2c-8.2,0-15.2-6.9-15.2-16.5c0-10,7-16.5,15.2-16.5c8.2,0,15.2,6.5,15.2,16.5C387.4,103.3,380.4,110.2,372.3,110.2
	L372.3,110.2z M312.8,66.4c-15.2,0-27.2,11.5-27.2,27.3s12.1,27.3,27.2,27.3c15.2,0,27.2-11.5,27.2-27.3S327.9,66.4,312.8,66.4z
	 M312.8,110.2c-8.2,0-15.2-6.9-15.2-16.5c0-10,7-16.5,15.2-16.5c8.2,0,15.2,6.5,15.2,16.5C327.9,103.3,320.9,110.2,312.8,110.2z
	 M242,74.9v11.5h27.6c-0.8,6.5-3.1,11.1-6.2,14.6c-3.9,3.8-10.1,8.5-21.4,8.5c-17.1,0-30.3-13.8-30.3-30.7S224.9,48,242,48
	c9.3,0,15.9,3.5,20.6,8.1l8.2-8.1c-7-6.5-15.9-11.5-28.8-11.5c-23.3,0-42.8,18.8-42.8,42.3S218.7,121,242,121
	c12.4,0,22.2-4.2,29.6-11.9c7.8-7.7,10.1-18.4,10.1-26.9c0-2.7-0.4-5-0.8-7.3H242z M530.9,83.7c-2.3-6.1-9.3-17.3-23.3-17.3
	c-14,0-25.7,11.1-25.7,27.3c0,15.4,11.7,27.3,26.8,27.3c9,0.1,17.5-4.4,22.6-11.9l-9.3-6.2c-3.1,4.6-7.4,7.7-13.2,7.7
	c-6.2,0-10.5-2.7-13.2-8.1l36.2-15L530.9,83.7L530.9,83.7z M493.9,92.9c-0.4-10.4,8.2-15.8,14-15.8c4.7,0,8.9,2.3,10.1,5.8
	L493.9,92.9L493.9,92.9z M464.4,119.4h12.1V39.1h-12.1V119.4z M445,72.6h-0.4c-2.7-3.1-7.8-6.2-14.4-6.2c-13.6,0-26,11.9-26,27.3
	s12.4,27.3,26,27.3c6.6,0,11.7-3.1,14.4-6.1h0.4v3.8c0,10.4-5.4,16.1-14.4,16.1c-7.4,0-11.7-5.4-13.6-9.6l-10.5,4.2
	c3.1,7.3,10.9,16.1,24.1,16.1c14,0,25.7-8.1,25.7-28.4V68.3H445V72.6z M431.4,110.2c-8.2,0-15.2-6.9-15.2-16.5
	c0-9.6,7-16.5,15.2-16.5c8.2,0,14.4,6.9,14.4,16.5C445.7,103.3,439.5,110.2,431.4,110.2L431.4,110.2z M586.9,39.1h-28.4v80.3h12.1
	V89.1h16.7c13.2,0,26-9.6,26-25C612.9,48.7,600.1,39.1,586.9,39.1L586.9,39.1z M587.3,77.9h-17.1V50.3h17.1c8.9,0,14,7.3,14,13.8
	C601.3,70.2,596.2,77.9,587.3,77.9z M660.7,66.4c-8.6,0-17.5,3.8-21.4,12.3l10.5,4.6c2.3-4.6,6.6-5.8,10.9-5.8
	c6.2,0,12.4,3.8,12.4,10.4v0.8c-2.3-1.2-6.6-3.1-12.4-3.1c-11.3,0-22.9,6.1-22.9,18.1c0,10.8,9.3,17.7,19.8,17.7
	c8.2,0,12.4-3.5,15.2-7.7h0.4v6.2h11.7V89.1C684.9,74.5,674.4,66.4,660.7,66.4L660.7,66.4z M659.2,110.2c-3.9,0-9.3-1.9-9.3-6.9
	c0-6.1,6.6-8.5,12.4-8.5c5.1,0,7.8,1.2,10.9,2.7C672.4,104.8,666.2,110.2,659.2,110.2L659.2,110.2z M726.8,67.9l-13.6,34.6h-0.4
	l-14-34.6H686l21.4,48.4l-12.1,26.9h12.4l32.7-75.3H726.8L726.8,67.9z M619.5,119.4h12.1V39.1h-12.1V119.4L619.5,119.4z"/>
<path fill="#01D4FE" class="st1" d="M9.7,170.5c-1.9-2.3-2.7-5-3.1-7.8v-1.2V20c0-3.1,0.8-6.2,3.1-8.5c0.4,0,0.8,0.4,1.2,0.8l59.3,59.3l18.2,18.2
	l1.2,1.2c0,0.8-0.8,1.2-1.2,1.6l-36.8,36.8c-8.1,8.1-16.7,16.3-24.8,24.8c-5,5.4-10.5,10.5-15.5,15.9
	C10.5,170.1,10.1,170.5,9.7,170.5z"/>
<path fill="#FE3A44" class="st2" d="M9.7,170.5l21.7-21.7l57-57l0.8-0.8h0.4c0.4,0,0.8,0.4,1.2,0.8l24.8,24.8c0.4,0.4,1.2,0.8,0.8,1.6
	c-6.6,3.9-12.8,7.4-19.4,11.2c-18.2,10.5-36.5,20.9-54.7,31c-6.2,3.5-12.8,7.4-19,10.9c-2.3,1.6-5,2.3-7.8,1.9S11.3,172.1,9.7,170.5
	L9.7,170.5z"/>
<path fill="#03EE76" class="st3" d="M89.2,91C72.2,73.9,55.1,57.3,38.4,40.2L10.5,12.3c-0.4-0.4-0.8-0.4-0.8-0.8c2.3-2.7,5.4-3.1,8.9-2.3
	c2.7,0.8,5.4,2.3,7.8,3.5L59,31.3c10.5,5.8,20.9,12,31.4,17.8c8.5,5,17.1,9.7,25.6,14.7c0.4,0.4-0.4,0.8-0.4,1.2L90.4,90.2
	C90,90.6,89.6,91,89.2,91z"/>
<path fill="#FED504" class="st4" d="M89.2,91c0.4-0.4,0.8-0.8,0.8-1.2l25.2-25.2c0.4-0.4,0.8-0.4,0.8-0.8c10.5,6.2,21.3,12,31.8,18.2
	c2.7,1.6,5,3.9,5.8,7c0.8,2.7-0.4,5.4-1.9,7.4c-1.2,1.6-2.7,2.7-4.3,3.5c-10.5,5.8-20.6,11.6-31,17.5c0,0-0.4,0-0.4,0.4
	c0-0.4-0.4-0.8-0.8-1.2c-8.1-8.5-16.7-16.7-25.2-25.2C89.6,91.4,89.6,91,89.2,91L89.2,91z"/>
</svg>
