<svg xmlns="http://www.w3.org/2000/svg" width="128" height="128" viewBox="0 0 1024 1024"><g fill="#707070"><path d="M538.197 94.336a42.71 42.71 0 0 0-52.437 0l-384 298.667a42.752 42.752 0 0 0 .043 67.328l384 298.666a42.41 42.41 0 0 0 52.394 0l384-298.666a42.667 42.667 0 0 0 0-67.328zM512 671.275L197.504 426.667 512 182.059l314.496 244.608z"/><path d="M512 938.667c9.259 0 18.517-2.987 26.197-9.003l366.934-285.355-69.462-54.101L512 841.941 189.568 591.147l-69.504 54.058L485.76 929.664a42.624 42.624 0 0 0 26.24 9.003z"/></g></svg>