<svg height="128" viewBox="0 0 1024 1024" width="128" xmlns="http://www.w3.org/2000/svg"><g fill="#707070"><path d="m538.197333 94.336a42.709333 42.709333 0 0 0 -52.437333 0l-384 298.666667a42.752 42.752 0 0 0 .042667 67.328l384 298.666666a42.410667 42.410667 0 0 0 52.394666 0l384-298.666666a42.666667 42.666667 0 0 0 0-67.328zm-26.197333 576.938667-314.496-244.608 314.496-244.608 314.496 244.608z"/><path d="m512 938.666667c9.258667 0 18.517333-2.986667 26.197333-9.002667l366.933334-285.354667-69.461334-54.101333-323.669333 251.733333-322.432-250.794666-69.504 54.058666 365.696 284.458667a42.624 42.624 0 0 0 26.24 9.002667z"/></g></svg>