<?xml version="1.0" standalone="no"?><!DOCTYPE svg PUBLIC "-//W3C//DTD SVG 1.1//EN" "http://www.w3.org/Graphics/SVG/1.1/DTD/svg11.dtd"><svg t="1566789526570" class="icon" viewBox="0 0 1024 1024" version="1.1" xmlns="http://www.w3.org/2000/svg" p-id="1965" xmlns:xlink="http://www.w3.org/1999/xlink" width="128" height="128"><defs><style type="text/css"></style></defs><path d="M538.197333 94.336a42.709333 42.709333 0 0 0-52.437333 0l-384 298.666667a42.752 42.752 0 0 0 0.042667 67.328l384 298.666666a42.410667 42.410667 0 0 0 52.394666 0l384-298.666666a42.666667 42.666667 0 0 0 0-67.328l-384-298.666667zM512 671.274667L197.504 426.666667 512 182.058667 826.496 426.666667 512 671.274667z" fill="#707070" p-id="1966"></path><path d="M512 938.666667c9.258667 0 18.517333-2.986667 26.197333-9.002667l366.933334-285.354667-69.461334-54.101333-323.669333 251.733333-322.432-250.794666-69.504 54.058666 365.696 284.458667A42.624 42.624 0 0 0 512 938.666667z" fill="#707070" p-id="1967"></path></svg>