<svg xmlns="http://www.w3.org/2000/svg" width="128" height="128" viewBox="0 0 1024 1024"><g fill="#2c2c2c"><path d="M720.85 805.925H288.21c-83.803 0-151.98-68.177-151.98-151.982V440.47c0-83.795 68.177-151.968 151.98-151.968h394.423c13.586 0 24.601 11.014 24.601 24.599 0 13.584-11.014 24.597-24.6 24.597H288.208c-56.679 0-102.786 46.101-102.786 102.772v213.474c0 56.679 46.107 102.786 102.786 102.786H720.85c56.677 0 102.785-46.107 102.785-102.786 0 .013-.142-257.569-.142-354.512 0-48.089 13.516-85.123 40.183-110.082 36.034-33.719 82.406-31.071 84.379-30.927 13.557.9 23.817 12.618 22.917 26.172-.898 13.56-12.531 23.799-26.166 22.916-.081 0-27.736-1.08-47.912 18.136-16.067 15.307-24.208 40.132-24.208 73.787 0 96.929.143 354.5.143 354.5 0 83.815-68.176 151.992-151.98 151.992z"/><path d="M683.161 493.33H326.665c-13.584 0-24.598-11.014-24.598-24.597 0-13.585 11.014-24.599 24.598-24.599H683.16c13.584 0 24.598 11.014 24.598 24.599 0 13.583-11.012 24.596-24.598 24.596zm0 155.726H326.665c-13.584 0-24.598-11.014-24.598-24.597 0-13.585 11.014-24.599 24.598-24.599H683.16c13.584 0 24.598 11.013 24.598 24.6 0 13.58-11.012 24.596-24.598 24.596zM798.125 888.58a48.074 48.074 0 1 0 98.39 0 48.074 48.074 0 1 0-98.39 0zm-674.605 0a48.074 48.074 0 1 0 98.39 0 48.074 48.074 0 1 0-98.39 0z"/></g></svg>